<svg width="36" height="35" viewBox="0 0 36 35" fill="none" xmlns="http://www.w3.org/2000/svg">
<path d="M28.5 30.625H7.5C5.84315 30.625 4.5 29.3192 4.5 27.7083V7.29167C4.5 5.68084 5.84315 4.375 7.5 4.375H28.5C30.1569 4.375 31.5 5.68084 31.5 7.29167V27.7083C31.5 29.3192 30.1569 30.625 28.5 30.625ZM7.5 7.29167V27.7083H28.5V7.29167H7.5ZM27 24.7917H9L13.5 18.9583L15 20.4167L19.5 14.5833L27 24.7917ZM12.75 16.0417C11.5074 16.0417 10.5 15.0623 10.5 13.8542C10.5 12.646 11.5074 11.6667 12.75 11.6667C13.9926 11.6667 15 12.646 15 13.8542C15 15.0623 13.9926 16.0417 12.75 16.0417Z" fill="#2E3A59"/>
</svg>
