<svg width="71" height="70" viewBox="0 0 71 70" fill="none" xmlns="http://www.w3.org/2000/svg">
<path d="M11.8333 55.4167H5.91663C5.91663 45.7517 13.8636 37.9167 23.6666 37.9167C33.4697 37.9167 41.4166 45.7517 41.4166 55.4167H35.5C35.5 48.9733 30.202 43.75 23.6666 43.75C17.1313 43.75 11.8333 48.9733 11.8333 55.4167ZM56.2083 46.6667H50.2916V37.9167H41.4166V32.0833H50.2916V23.3333H56.2083V32.0833H65.0833V37.9167H56.2083V46.6667ZM23.6666 35C17.1313 35 11.8333 29.7766 11.8333 23.3333C11.8333 16.89 17.1313 11.6667 23.6666 11.6667C30.202 11.6667 35.5 16.89 35.5 23.3333C35.4918 29.7733 30.1986 34.992 23.6666 35ZM23.6666 17.5C20.4343 17.5032 17.8029 20.0633 17.7566 23.2497C17.7102 26.4362 20.2662 29.0695 23.4971 29.1641C26.7279 29.2586 29.4378 26.7794 29.5833 23.5958V24.7625V23.3333C29.5833 20.1117 26.9343 17.5 23.6666 17.5Z" fill="#2E3A59"/>
</svg>
